Coordinates
version=1
nRows=65
nColumns=12
inDegrees=yes

Units are S.I. units (second, meters, Newtons, ...)
Angles are in degrees

endheader
time	SC_y	SC_z	SC_x	AC_y	AC_z	AC_x	GH_y	GH_z	GH_yy	EL_x	PS_y
       0.0              -54.07          38.97          36.34          39.51          4.513          15.93         -113.0          66.45          96.52          13.14          40.79
   0.02862              -54.07          38.97          36.34          39.51          4.512          15.93         -113.0          66.44          96.51          13.15           40.8
   0.05723              -54.07          38.96          36.34          39.51          4.512          15.92         -113.0          66.43          96.49          13.17          40.82
   0.08585              -54.07          38.96          36.34          39.51          4.511          15.92         -113.0          66.42          96.47          13.18          40.83
    0.1145              -54.07          38.96          36.35          39.51           4.51          15.92         -113.0           66.4          96.45           13.2          40.85
    0.1431              -54.07          38.96          36.35          39.51           4.51          15.91         -113.0          66.39          96.43          13.21          40.87
    0.1717              -54.07          38.95          36.35          39.51          4.509          15.91         -113.0          66.38          96.41          13.23          40.89
    0.2003              -54.07          38.95          36.36          39.51          4.508           15.9         -113.0          66.36          96.39          13.25          40.91
    0.2289              -54.06          38.94          36.36          39.51          4.507           15.9         -112.9          66.34          96.36          13.27          40.93
    0.2575              -54.06          38.94          36.36          39.51          4.506          15.89         -112.9          66.32          96.33          13.29          40.96
    0.2862              -54.06          38.94          36.37          39.51          4.505          15.88         -112.9           66.3           96.3          13.32          40.98
    0.3148              -54.06          38.93          36.37           39.5          4.503          15.88         -112.9          66.28          96.27          13.34          41.01
    0.3434              -54.06          38.93          36.38           39.5          4.502          15.87         -112.9          66.26          96.24          13.37          41.04
     0.372              -54.05          38.92          36.38           39.5          4.501          15.86         -112.8          66.23           96.2           13.4          41.08
    0.4006              -54.05          38.92          36.39           39.5          4.499          15.85         -112.8           66.2          96.17          13.44          41.11
    0.4292              -54.05          38.91           36.4           39.5          4.497          15.84         -112.8          66.18          96.12          13.47          41.15
    0.4579              -54.04           38.9           36.4           39.5          4.495          15.83         -112.8          66.14          96.08          13.51          41.19
    0.4865              -54.04           38.9          36.41           39.5          4.493          15.82         -112.7          66.11          96.03          13.55          41.24
    0.5151              -54.04          38.89          36.42           39.5          4.491          15.81         -112.7          66.07          95.97           13.6          41.29
    0.5437              -54.03          38.88          36.43          39.49          4.489           15.8         -112.7          66.03          95.91          13.65          41.35
    0.5723              -54.03          38.87          36.44          39.49          4.486          15.78         -112.6          65.98          95.85           13.7          41.41
    0.6009              -54.02          38.86          36.45          39.49          4.483          15.77         -112.6          65.93          95.77          13.76          41.47
    0.6296              -54.02          38.85          36.46          39.49           4.48          15.75         -112.5          65.88          95.69          13.83          41.55
    0.6582              -54.01          38.83          36.47          39.48          4.477          15.73         -112.5          65.81           95.6           13.9          41.63
    0.6868               -54.0          38.82          36.49          39.48          4.473          15.71         -112.4          65.74           95.5          13.99          41.72
    0.7154               -54.0           38.8           36.5          39.48          4.468          15.69         -112.3          65.67          95.39          14.08          41.82
     0.744              -53.99          38.78          36.52          39.47          4.464          15.66         -112.3          65.58          95.27          14.18          41.93
    0.7726              -53.98          38.76          36.54          39.47          4.458          15.63         -112.2          65.48          95.13           14.3          42.06
    0.8012              -53.97          38.74          36.57          39.47          4.452           15.6         -112.1          65.37          94.98          14.43          42.21
    0.8299              -53.96          38.71          36.59          39.46          4.445          15.56         -112.0          65.25           94.8          14.58          42.37
    0.8585              -53.94          38.69          36.62          39.45          4.437          15.51         -111.8          65.11          94.59          14.75          42.56
    0.8871              -53.92          38.65          36.66          39.45          4.428          15.46         -111.7          64.95          94.36          14.94          42.77
    0.9157              -53.91          38.61           36.7          39.44          4.417           15.4         -111.5          64.76          94.09          15.17          43.02
    0.9443              -53.88          38.57          36.74          39.43          4.404          15.34         -111.3          64.54          93.78          15.43          43.31
    0.9729              -53.86          38.51           36.8          39.42           4.39          15.26         -111.1          64.28          93.41          15.73          43.64
     1.002              -53.83          38.45          36.86          39.41          4.373          15.16         -110.8          63.98          92.98          16.09          44.04
      1.03              -53.79          38.37          36.94          39.39          4.353          15.05         -110.5          63.62          92.47          16.52          44.51
     1.059              -53.75          38.28          37.03          39.37          4.328          14.92         -110.1           63.2          91.85          17.03          45.07
     1.087               -53.7          38.17          37.14          39.35          4.299          14.76         -109.6          62.68          91.11          17.65          45.76
     1.116              -53.64          38.04          37.28          39.32          4.263          14.56         -109.0          62.04           90.2          18.41          46.59
     1.145              -53.56          37.87          37.44          39.29          4.218          14.32         -108.3          61.26          89.07          19.35          47.62
     1.173              -53.46          37.67          37.65          39.24          4.163          14.01         -107.5          60.28          87.68          20.52          48.91
     1.202              -53.34          37.41          37.91          39.19          4.093          13.63         -106.3          59.05          85.91          21.99          50.53
      1.23              -53.18          37.08          38.25          39.12          4.004          13.14         -104.9          57.49          83.67          23.86          52.59
     1.259              -52.99          36.66          38.67          39.04          3.891          12.52         -103.1          55.49           80.8          26.25          55.22
     1.288              -52.73          36.12          39.22          38.93          3.745          11.72         -100.8          52.92          77.12          29.32           58.6
     1.316               -52.4          35.42          39.92          38.78          3.559           10.7         -97.81          49.64          72.42          33.24          62.92
     1.345              -51.99          34.55           40.8          38.61          3.325          9.419         -94.07          45.52          66.51          38.17          68.35
     1.374               -51.5           33.5          41.87          38.39           3.04          7.856         -89.51          40.49           59.3          44.18          74.96
     1.402              -50.92          32.27          43.11          38.13          2.709          6.044         -84.23          34.66          50.95          51.14          82.63
     1.431              -50.29          30.94          44.45          37.86          2.351          4.082         -78.52          28.35          41.91          58.69          90.94
     1.459              -49.66          29.61          45.79          37.59          1.993           2.12          -72.8          22.05          32.86          66.23          99.24
     1.488              -49.08          28.38          47.03          37.34          1.663         0.3077         -67.52          16.22          24.51          73.19          106.9
     1.517              -48.59          27.32           48.1          37.12          1.377         -1.256         -62.96          11.19          17.31           79.2          113.5
     1.545              -48.18          26.45          48.98          36.94          1.143         -2.538         -59.23           7.07           11.4          84.13          119.0
     1.574              -47.85          25.76          49.68           36.8         0.9571         -3.558         -56.25          3.789          6.693          88.05          123.3
     1.602              -47.59          25.22          50.23          36.69         0.8114         -4.357         -53.93          1.222          3.012          91.12          126.7
     1.631               -47.4           24.8          50.65           36.6         0.6978          -4.98         -52.11        -0.7796         0.1433          93.52          129.3
      1.66              -47.24          24.47          50.99          36.53         0.6091         -5.466          -50.7         -2.343         -2.098          95.39          131.3
     1.688              -47.12          24.21          51.25          36.48         0.5393         -5.848         -49.58         -3.573         -3.861          96.86          133.0
     1.717              -47.02           24.0          51.46          36.44         0.4839         -6.152          -48.7         -4.549          -5.26          98.02          134.3
     1.746              -46.94          23.84          51.62           36.4         0.4395         -6.395         -47.99         -5.332         -6.383          98.96          135.3
     1.774              -46.88           23.7          51.76          36.37         0.4035         -6.593         -47.41         -5.966         -7.292          99.72          136.1
     1.803              -46.83          23.59          51.87          36.35          0.374         -6.754         -46.94         -6.486         -8.036          100.3          136.8
     1.831              -46.79           23.5          51.96          36.33         0.3497         -6.888         -46.55         -6.915         -8.652          100.9          137.4
